# xmcd
# Track frame offsets:
# 150
# 15987
# 28328
# 46094
# 61338
# 73287
# 92600
# 105143
# 118032
#
# Disc length: 1747 seconds
# Revision: 0
# Processed by: cddbd v1.5.2PL0 Copyright (c) Steve Scherf et al.
# Submitted via: VisiTrax 2.11.2.271 - For more info visit www.synapsa.com
#
DISCID=6b06d109
DTITLE=Aschmann, Jeff - White Fella Man
DYEAR=1900
DGENRE=Country
TTITLE0=Aschmann, Jeff - White Fella Man
TTITLE1=Aschmann, Jeff - Numbulwar Time
TTITLE2=Aschmann, Jeff - Just Another Day in Arnhem Land
TTITLE3=Aschmann, Jeff - Sense of Belonging
TTITLE4=Yr 8 Students, Hillston School 2008 - Hope It's Gonna Rain Today
TTITLE5=Aschmann, Jeff - Deua River Dance
TTITLE6=Aschmann, Jeff - w/ Leanda O'Brien - Women Off the Land
TTITLE7=Aschmann, Jeff - Save Australia
TTITLE8=Aschmann, Jeff - Fish Song, The
EXTD=
EXTT0=
EXTT1=
EXTT2=
EXTT3=
EXTT4=
EXTT5=
EXTT6=
EXTT7=
EXTT8=
PLAYORDER=
